<?xml version="1.0"?>
<svg xmlns="http://www.w3.org/2000/svg" version="1.1" width="1513.63549804688pt" height="1007.39434814453pt" viewBox="-87.1614692863442 -657.822171155281 1513.63543857269 1007.39434231056" preserveAspectRatio="none" xmlns:xlink="http://www.w3.org/1999/xlink">
  <defs>
  </defs>
  <path d="M165.9375,-24.1875 L177.112487792969,-24.1875 " stroke="#000000" fill="none" stroke-width="1" stroke-opacity="1" />
  <path d="M182.8125,-24.1875019073486 L177.112487792969,-21.9675006866455 L177.112487792969,-26.4075012207031 L182.8125,-24.1875019073486 " stroke="none" fill="#000000" fill-rule="evenodd" stroke-width="0" fill-opacity="1" />
  <path d="M182.8125,-24.1875019073486 L177.112487792969,-21.9675006866455 L177.112487792969,-26.4075012207031 L182.8125,-24.1875019073486 " stroke="#000000" fill="none" stroke-width="1" stroke-opacity="1" />
  <path d="M74.8125,-24.1875 L85.9874954223633,-24.1875 " stroke="#000000" fill="none" stroke-width="1" stroke-opacity="1" />
  <path d="M91.6875,-24.1875019073486 L85.9874954223633,-21.9675006866455 L85.9874954223633,-26.4075012207031 L91.6875,-24.1875019073486 " stroke="none" fill="#000000" fill-rule="evenodd" stroke-width="0" fill-opacity="1" />
  <path d="M91.6875,-24.1875019073486 L85.9874954223633,-21.9675006866455 L85.9874954223633,-26.4075012207031 L91.6875,-24.1875019073486 " stroke="#000000" fill="none" stroke-width="1" stroke-opacity="1" />
  <path d="M165.9375,-148.770843505859 L183.271179199219,-155.725708007813 " stroke="#000000" fill="none" stroke-width="1" stroke-opacity="1" />
  <path d="M188.561233520508,-157.848266601563 L184.097854614258,-153.665374755859 L182.444488525391,-157.786056518555 L188.561233520508,-157.848266601563 " stroke="none" fill="#000000" fill-rule="evenodd" stroke-width="0" fill-opacity="1" />
  <path d="M188.561233520508,-157.848266601563 L184.097854614258,-153.665374755859 L182.444488525391,-157.786056518555 L188.561233520508,-157.848266601563 " stroke="#000000" fill="none" stroke-width="1" stroke-opacity="1" />
  <path d="M165.9375,-118.979164123535 L183.271179199219,-112.024291992188 " stroke="#000000" fill="none" stroke-width="1" stroke-opacity="1" />
  <path d="M188.561233520508,-109.901741027832 L182.444488525391,-109.963958740234 L184.097854614258,-114.08464050293 L188.561233520508,-109.901741027832 " stroke="none" fill="#000000" fill-rule="evenodd" stroke-width="0" fill-opacity="1" />
  <path d="M188.561233520508,-109.901741027832 L182.444488525391,-109.963958740234 L184.097854614258,-114.08464050293 L188.561233520508,-109.901741027832 " stroke="#000000" fill="none" stroke-width="1" stroke-opacity="1" />
  <path d="M74.8125,-133.875 L85.9874954223633,-133.875 " stroke="#000000" fill="none" stroke-width="1" stroke-opacity="1" />
  <path d="M91.6875,-133.875015258789 L85.9874954223633,-131.655014038086 L85.9874954223633,-136.095001220703 L91.6875,-133.875015258789 " stroke="none" fill="#000000" fill-rule="evenodd" stroke-width="0" fill-opacity="1" />
  <path d="M91.6875,-133.875015258789 L85.9874954223633,-131.655014038086 L85.9874954223633,-136.095001220703 L91.6875,-133.875015258789 " stroke="#000000" fill="none" stroke-width="1" stroke-opacity="1" />
  <path d="M348.1875,-243.5625 L359.362487792969,-243.5625 " stroke="#000000" fill="none" stroke-width="1" stroke-opacity="1" />
  <path d="M365.0625,-243.562515258789 L359.362487792969,-241.342514038086 L359.362487792969,-245.782501220703 L365.0625,-243.562515258789 " stroke="none" fill="#000000" fill-rule="evenodd" stroke-width="0" fill-opacity="1" />
  <path d="M365.0625,-243.562515258789 L359.362487792969,-241.342514038086 L359.362487792969,-245.782501220703 L365.0625,-243.562515258789 " stroke="#000000" fill="none" stroke-width="1" stroke-opacity="1" />
  <path d="M257.0625,-243.5625 L268.237487792969,-243.5625 " stroke="#000000" fill="none" stroke-width="1" stroke-opacity="1" />
  <path d="M273.9375,-243.562515258789 L268.237487792969,-241.342514038086 L268.237487792969,-245.782501220703 L273.9375,-243.562515258789 " stroke="none" fill="#000000" fill-rule="evenodd" stroke-width="0" fill-opacity="1" />
  <path d="M273.9375,-243.562515258789 L268.237487792969,-241.342514038086 L268.237487792969,-245.782501220703 L273.9375,-243.562515258789 " stroke="#000000" fill="none" stroke-width="1" stroke-opacity="1" />
  <path d="M348.1875,-24.1875 L359.362487792969,-24.1875 " stroke="#000000" fill="none" stroke-width="1" stroke-opacity="1" />
  <path d="M365.0625,-24.1875019073486 L359.362487792969,-21.9675006866455 L359.362487792969,-26.4075012207031 L365.0625,-24.1875019073486 " stroke="none" fill="#000000" fill-rule="evenodd" stroke-width="0" fill-opacity="1" />
  <path d="M365.0625,-24.1875019073486 L359.362487792969,-21.9675006866455 L359.362487792969,-26.4075012207031 L365.0625,-24.1875019073486 " stroke="#000000" fill="none" stroke-width="1" stroke-opacity="1" />
  <path d="M257.0625,-24.1875 L268.237487792969,-24.1875 " stroke="#000000" fill="none" stroke-width="1" stroke-opacity="1" />
  <path d="M273.9375,-24.1875019073486 L268.237487792969,-21.9675006866455 L268.237487792969,-26.4075012207031 L273.9375,-24.1875019073486 " stroke="none" fill="#000000" fill-rule="evenodd" stroke-width="0" fill-opacity="1" />
  <path d="M273.9375,-24.1875019073486 L268.237487792969,-21.9675006866455 L268.237487792969,-26.4075012207031 L273.9375,-24.1875019073486 " stroke="#000000" fill="none" stroke-width="1" stroke-opacity="1" />
  <path d="M348.1875,-170.4375 L359.362487792969,-170.4375 " stroke="#000000" fill="none" stroke-width="1" stroke-opacity="1" />
  <path d="M365.0625,-170.437515258789 L359.362487792969,-168.217514038086 L359.362487792969,-172.657501220703 L365.0625,-170.437515258789 " stroke="none" fill="#000000" fill-rule="evenodd" stroke-width="0" fill-opacity="1" />
  <path d="M365.0625,-170.437515258789 L359.362487792969,-168.217514038086 L359.362487792969,-172.657501220703 L365.0625,-170.437515258789 " stroke="#000000" fill="none" stroke-width="1" stroke-opacity="1" />
  <path d="M257.0625,-170.4375 L268.237487792969,-170.4375 " stroke="#000000" fill="none" stroke-width="1" stroke-opacity="1" />
  <path d="M273.9375,-170.437515258789 L268.237487792969,-168.217514038086 L268.237487792969,-172.657501220703 L273.9375,-170.437515258789 " stroke="none" fill="#000000" fill-rule="evenodd" stroke-width="0" fill-opacity="1" />
  <path d="M273.9375,-170.437515258789 L268.237487792969,-168.217514038086 L268.237487792969,-172.657501220703 L273.9375,-170.437515258789 " stroke="#000000" fill="none" stroke-width="1" stroke-opacity="1" />
  <path d="M530.4375,-170.4375 L541.612487792969,-170.4375 " stroke="#000000" fill="none" stroke-width="1" stroke-opacity="1" />
  <path d="M547.3125,-170.437515258789 L541.612487792969,-168.217514038086 L541.612487792969,-172.657501220703 L547.3125,-170.437515258789 " stroke="none" fill="#000000" fill-rule="evenodd" stroke-width="0" fill-opacity="1" />
  <path d="M547.3125,-170.437515258789 L541.612487792969,-168.217514038086 L541.612487792969,-172.657501220703 L547.3125,-170.437515258789 " stroke="#000000" fill="none" stroke-width="1" stroke-opacity="1" />
  <path d="M425.154144287109,-225.132476806641 L459.517944335938,-197.556564331055 " stroke="#000000" fill="none" stroke-width="1" stroke-opacity="1" />
  <path d="M463.963531494141,-193.989120483398 L458.128509521484,-195.825134277344 L460.907379150391,-199.288024902344 L463.963531494141,-193.989120483398 " stroke="none" fill="#000000" fill-rule="evenodd" stroke-width="0" fill-opacity="1" />
  <path d="M463.963531494141,-193.989120483398 L458.128509521484,-195.825134277344 L460.907379150391,-199.288024902344 L463.963531494141,-193.989120483398 " stroke="#000000" fill="none" stroke-width="1" stroke-opacity="1" />
  <path d="M415.848114013672,-46.112003326416 L475.578002929688,-141.974731445313 " stroke="#000000" fill="none" stroke-width="1" stroke-opacity="1" />
  <path d="M478.59228515625,-146.8125 L477.462158203125,-140.800750732422 L473.693817138672,-143.148727416992 L478.59228515625,-146.8125 " stroke="none" fill="#000000" fill-rule="evenodd" stroke-width="0" fill-opacity="1" />
  <path d="M478.59228515625,-146.8125 L477.462158203125,-140.800750732422 L473.693817138672,-143.148727416992 L478.59228515625,-146.8125 " stroke="#000000" fill="none" stroke-width="1" stroke-opacity="1" />
  <path d="M439.3125,-170.4375 L450.487518310547,-170.4375 " stroke="#000000" fill="none" stroke-width="1" stroke-opacity="1" />
  <path d="M456.1875,-170.437515258789 L450.487487792969,-168.217514038086 L450.487487792969,-172.657501220703 L456.1875,-170.437515258789 " stroke="none" fill="#000000" fill-rule="evenodd" stroke-width="0" fill-opacity="1" />
  <path d="M456.1875,-170.437515258789 L450.487487792969,-168.217514038086 L450.487487792969,-172.657501220703 L456.1875,-170.437515258789 " stroke="#000000" fill="none" stroke-width="1" stroke-opacity="1" />
  <path d="M745.3125,-164.8125 L755.362487792969,-164.8125 " stroke="#000000" fill="none" stroke-width="1" stroke-opacity="1" />
  <path d="M761.0625,-164.812515258789 L755.362487792969,-162.592514038086 L755.362487792969,-167.032501220703 L761.0625,-164.812515258789 " stroke="none" fill="#000000" fill-rule="evenodd" stroke-width="0" fill-opacity="1" />
  <path d="M761.0625,-164.812515258789 L755.362487792969,-162.592514038086 L755.362487792969,-167.032501220703 L761.0625,-164.812515258789 " stroke="#000000" fill="none" stroke-width="1" stroke-opacity="1" />
  <path d="M614.762329101563,-106.037994384766 L669.178588867188,-140.271697998047 " stroke="#000000" fill="none" stroke-width="1" stroke-opacity="1" />
  <path d="M674.003234863281,-143.306930541992 L670.360717773438,-138.392623901367 L667.996398925781,-142.150772094727 L674.003234863281,-143.306930541992 " stroke="none" fill="#000000" fill-rule="evenodd" stroke-width="0" fill-opacity="1" />
  <path d="M674.003234863281,-143.306930541992 L670.360717773438,-138.392623901367 L667.996398925781,-142.150772094727 L674.003234863281,-143.306930541992 " stroke="#000000" fill="none" stroke-width="1" stroke-opacity="1" />
  <path d="M621.429016113281,-168.756072998047 L665.368347167969,-166.758819580078 " stroke="#000000" fill="none" stroke-width="1" stroke-opacity="1" />
  <path d="M671.0625,-166.5 L665.267578125,-164.541122436523 L665.469177246094,-168.976531982422 L671.0625,-166.5 " stroke="none" fill="#000000" fill-rule="evenodd" stroke-width="0" fill-opacity="1" />
  <path d="M671.0625,-166.5 L665.267578125,-164.541122436523 L665.469177246094,-168.976531982422 L671.0625,-166.5 " stroke="#000000" fill="none" stroke-width="1" stroke-opacity="1" />
  <path d="M618.290954589844,-235.924652099609 L673.9921875,-191.862533569336 " stroke="#000000" fill="none" stroke-width="1" stroke-opacity="1" />
  <path d="M678.462524414063,-188.326232910156 L672.614868164063,-190.121429443359 L675.369445800781,-193.603637695313 L678.462524414063,-188.326232910156 " stroke="none" fill="#000000" fill-rule="evenodd" stroke-width="0" fill-opacity="1" />
  <path d="M678.462524414063,-188.326232910156 L672.614868164063,-190.121429443359 L675.369445800781,-193.603637695313 L678.462524414063,-188.326232910156 " stroke="#000000" fill="none" stroke-width="1" stroke-opacity="1" />
  <path d="M933.1875,-163.6875 L943.237487792969,-163.6875 " stroke="#000000" fill="none" stroke-width="1" stroke-opacity="1" />
  <path d="M948.9375,-163.687515258789 L943.237487792969,-161.467514038086 L943.237487792969,-165.907501220703 L948.9375,-163.687515258789 " stroke="none" fill="#000000" fill-rule="evenodd" stroke-width="0" fill-opacity="1" />
  <path d="M948.9375,-163.687515258789 L943.237487792969,-161.467514038086 L943.237487792969,-165.907501220703 L948.9375,-163.687515258789 " stroke="#000000" fill="none" stroke-width="1" stroke-opacity="1" />
  <path d="M835.278625488281,-164.386169433594 L853.237854003906,-164.179733276367 " stroke="#000000" fill="none" stroke-width="1" stroke-opacity="1" />
  <path d="M858.9375,-164.114227294922 L853.212341308594,-161.959899902344 L853.263366699219,-166.399597167969 L858.9375,-164.114227294922 " stroke="none" fill="#000000" fill-rule="evenodd" stroke-width="0" fill-opacity="1" />
  <path d="M858.9375,-164.114227294922 L853.212341308594,-161.959899902344 L853.263366699219,-166.399597167969 L858.9375,-164.114227294922 " stroke="#000000" fill="none" stroke-width="1" stroke-opacity="1" />
  <path d="M794.586242675781,-291.740814208984 L873.800598144531,-191.779861450195 " stroke="#000000" fill="none" stroke-width="1" stroke-opacity="1" />
  <path d="M877.340759277344,-187.312515258789 L872.060668945313,-190.401062011719 L875.54052734375,-193.158660888672 L877.340759277344,-187.312515258789 " stroke="none" fill="#000000" fill-rule="evenodd" stroke-width="0" fill-opacity="1" />
  <path d="M877.340759277344,-187.312515258789 L872.060668945313,-190.401062011719 L875.54052734375,-193.158660888672 L877.340759277344,-187.312515258789 " stroke="#000000" fill="none" stroke-width="1" stroke-opacity="1" />
  <path d="M914.0625,-316.125 L924.112487792969,-316.125 " stroke="#000000" fill="none" stroke-width="1" stroke-opacity="1" />
  <path d="M929.8125,-316.125030517578 L924.112487792969,-313.905029296875 L924.112487792969,-318.345001220703 L929.8125,-316.125030517578 " stroke="none" fill="#000000" fill-rule="evenodd" stroke-width="0" fill-opacity="1" />
  <path d="M929.8125,-316.125030517578 L924.112487792969,-313.905029296875 L924.112487792969,-318.345001220703 L929.8125,-316.125030517578 " stroke="#000000" fill="none" stroke-width="1" stroke-opacity="1" />
  <path d="M814.962341308594,-314.012237548828 L834.115783691406,-314.665191650391 " stroke="#000000" fill="none" stroke-width="1" stroke-opacity="1" />
  <path d="M839.812438964844,-314.859405517578 L834.19140625,-312.446472167969 L834.040100097656,-316.883911132813 L839.812438964844,-314.859405517578 " stroke="none" fill="#000000" fill-rule="evenodd" stroke-width="0" fill-opacity="1" />
  <path d="M839.812438964844,-314.859405517578 L834.19140625,-312.446472167969 L834.040100097656,-316.883911132813 L839.812438964844,-314.859405517578 " stroke="#000000" fill="none" stroke-width="1" stroke-opacity="1" />
  <path d="M1102.5,-250.875 L1112.54992675781,-250.875 " stroke="#000000" fill="none" stroke-width="1" stroke-opacity="1" />
  <path d="M1118.25,-250.875015258789 L1112.54992675781,-248.655014038086 L1112.54992675781,-253.095001220703 L1118.25,-250.875015258789 " stroke="none" fill="#000000" fill-rule="evenodd" stroke-width="0" fill-opacity="1" />
  <path d="M1118.25,-250.875015258789 L1112.54992675781,-248.655014038086 L1112.54992675781,-253.095001220703 L1118.25,-250.875015258789 " stroke="#000000" fill="none" stroke-width="1" stroke-opacity="1" />
  <path d="M992.603393554688,-299.112213134766 L1027.21508789063,-276.169555664063 " stroke="#000000" fill="none" stroke-width="1" stroke-opacity="1" />
  <path d="M1031.96606445313,-273.020324707031 L1025.98852539063,-274.319183349609 L1028.44165039063,-278.019958496094 L1031.96606445313,-273.020324707031 " stroke="none" fill="#000000" fill-rule="evenodd" stroke-width="0" fill-opacity="1" />
  <path d="M1031.96606445313,-273.020324707031 L1025.98852539063,-274.319183349609 L1028.44165039063,-278.019958496094 L1031.96606445313,-273.020324707031 " stroke="#000000" fill="none" stroke-width="1" stroke-opacity="1" />
  <path d="M1004.58526611328,-184.049423217773 L1040.04821777344,-223.033569335938 " stroke="#000000" fill="none" stroke-width="1" stroke-opacity="1" />
  <path d="M1043.8837890625,-227.250015258789 L1041.6904296875,-221.539733886719 L1038.40600585938,-224.527450561523 L1043.8837890625,-227.250015258789 " stroke="none" fill="#000000" fill-rule="evenodd" stroke-width="0" fill-opacity="1" />
  <path d="M1043.8837890625,-227.250015258789 L1041.6904296875,-221.539733886719 L1038.40600585938,-224.527450561523 L1043.8837890625,-227.250015258789 " stroke="#000000" fill="none" stroke-width="1" stroke-opacity="1" />
  <path d="M1004.58526611328,-184.049423217773 L1040.04821777344,-223.033569335938 " stroke="#000000" fill="none" stroke-width="1" stroke-opacity="1" />
  <path d="M1043.8837890625,-227.250015258789 L1041.6904296875,-221.539733886719 L1038.40600585938,-224.527450561523 L1043.8837890625,-227.250015258789 " stroke="none" fill="#000000" fill-rule="evenodd" stroke-width="0" fill-opacity="1" />
  <path d="M1043.8837890625,-227.250015258789 L1041.6904296875,-221.539733886719 L1038.40600585938,-224.527450561523 L1043.8837890625,-227.250015258789 " stroke="#000000" fill="none" stroke-width="1" stroke-opacity="1" />
  <path d="M1248.75,-82.125 L1258.79992675781,-82.125 " stroke="#000000" fill="none" stroke-width="1" stroke-opacity="1" />
  <path d="M1264.5,-82.1250076293945 L1258.79992675781,-79.9050064086914 L1258.79992675781,-84.3450012207031 L1264.5,-82.1250076293945 " stroke="none" fill="#000000" fill-rule="evenodd" stroke-width="0" fill-opacity="1" />
  <path d="M1264.5,-82.1250076293945 L1258.79992675781,-79.9050064086914 L1258.79992675781,-84.3450012207031 L1264.5,-82.1250076293945 " stroke="#000000" fill="none" stroke-width="1" stroke-opacity="1" />
  <path d="M1235.25,-58.5 L1277.70471191406,-16.0452632904053 " stroke="#000000" fill="none" stroke-width="1" stroke-opacity="1" />
  <path d="M1281.73522949219,-12.0147533416748 L1276.13488769531,-14.4754848480225 L1279.2744140625,-17.6150398254395 L1281.73522949219,-12.0147533416748 " stroke="none" fill="#000000" fill-rule="evenodd" stroke-width="0" fill-opacity="1" />
  <path d="M1281.73522949219,-12.0147533416748 L1276.13488769531,-14.4754848480225 L1279.2744140625,-17.6150398254395 L1281.73522949219,-12.0147533416748 " stroke="#000000" fill="none" stroke-width="1" stroke-opacity="1" />
  <path d="M1223.90002441406,-131.992263793945 L1218.802734375,-111.284790039063 " stroke="#000000" fill="none" stroke-width="1" stroke-opacity="1" />
  <path d="M1217.44030761719,-105.750007629395 L1216.64709472656,-111.815414428711 L1220.95837402344,-110.754165649414 L1217.44030761719,-105.750007629395 " stroke="none" fill="#000000" fill-rule="evenodd" stroke-width="0" fill-opacity="1" />
  <path d="M1217.44030761719,-105.750007629395 L1216.64709472656,-111.815414428711 L1220.95837402344,-110.754165649414 L1217.44030761719,-105.750007629395 " stroke="#000000" fill="none" stroke-width="1" stroke-opacity="1" />
  <path d="M1163.07556152344,-227.773162841797 L1201.94750976563,-111.157493591309 " stroke="#000000" fill="none" stroke-width="1" stroke-opacity="1" />
  <path d="M1203.75,-105.750007629395 L1199.84143066406,-110.455474853516 L1204.05358886719,-111.859527587891 L1203.75,-105.750007629395 " stroke="none" fill="#000000" fill-rule="evenodd" stroke-width="0" fill-opacity="1" />
  <path d="M1203.75,-105.750007629395 L1199.84143066406,-110.455474853516 L1204.05358886719,-111.859527587891 L1203.75,-105.750007629395 " stroke="#000000" fill="none" stroke-width="1" stroke-opacity="1" />
  <path d="M257.062469482422,-243.562515258789 C257.062469482422,-230.514785766602 240.441055297852,-219.937515258789 219.9375,-219.937515258789 C199.433929443359,-219.9375 182.8125,-230.514770507813 182.8125,-243.5625 C182.8125,-243.5625 182.8125,-243.5625 182.8125,-243.5625 L182.8125,-243.562484741211 C182.812469482422,-256.610229492188 199.433898925781,-267.1875 219.937454223633,-267.1875 C240.441024780273,-267.187530517578 257.062469482422,-256.610260009766 257.062469482422,-243.5625 C257.062469482422,-243.5625 257.062469482422,-243.5625 257.062469482422,-243.5625 " stroke="none" fill="#0099CC" fill-rule="evenodd" stroke-width="0" fill-opacity="1" />
  <text x="20.5741901397705" y="37.236442565918" dx="0" dy="0" font-family="Arial" font-size="9.74999970942737pt" fill="#000000" style="text-anchor:start" transform="matrix(0.750000 0.000000 0.000000 0.750000 182.8125 -267.1875)">LandUse</text>
  <path d="M257.062469482422,-243.562515258789 C257.062469482422,-230.514785766602 240.441055297852,-219.937515258789 219.9375,-219.937515258789 C199.433929443359,-219.9375 182.8125,-230.514770507813 182.8125,-243.5625 C182.8125,-243.5625 182.8125,-243.5625 182.8125,-243.5625 L182.8125,-243.562484741211 C182.812469482422,-256.610229492188 199.433898925781,-267.1875 219.937454223633,-267.1875 C240.441024780273,-267.187530517578 257.062469482422,-256.610260009766 257.062469482422,-243.5625 C257.062469482422,-243.5625 257.062469482422,-243.5625 257.062469482422,-243.5625 " stroke="#000000" fill="none" stroke-width="1" stroke-opacity="1" />
  <path d="M74.8124923706055,-24.1875057220459 C74.8124847412109,-11.1397819519043 58.1910667419434,-0.562507629394531 37.6875114440918,-0.562503814697266 C17.1839408874512,-0.5625 0.562505722045898,-11.1397705078125 0.5625,-24.1875 C0.5625,-24.1875 0.5625,-24.1875 0.5625,-24.1875 L0.5625,-24.1874828338623 C0.562479972839355,-37.2352104187012 17.1838989257813,-47.8124923706055 37.6874656677246,-47.8125 C58.1910362243652,-47.8125114440918 74.8124771118164,-37.2352447509766 74.8124923706055,-24.1875 C74.8124923706055,-24.1875 74.8124923706055,-24.1875 74.8124923706055,-24.1875 " stroke="none" fill="#0099CC" fill-rule="evenodd" stroke-width="0" fill-opacity="1" />
  <text x="19.1326904296875" y="37.236442565918" dx="0" dy="0" font-family="Arial" font-size="9.74999970942737pt" fill="#000000" style="text-anchor:start" transform="matrix(0.750000 0.000000 0.000000 0.750000 0.5625 -47.8125)">Elevation</text>
  <path d="M74.8124923706055,-24.1875057220459 C74.8124847412109,-11.1397819519043 58.1910667419434,-0.562507629394531 37.6875114440918,-0.562503814697266 C17.1839408874512,-0.5625 0.562505722045898,-11.1397705078125 0.5625,-24.1875 C0.5625,-24.1875 0.5625,-24.1875 0.5625,-24.1875 L0.5625,-24.1874828338623 C0.562479972839355,-37.2352104187012 17.1838989257813,-47.8124923706055 37.6874656677246,-47.8125 C58.1910362243652,-47.8125114440918 74.8124771118164,-37.2352447509766 74.8124923706055,-24.1875 C74.8124923706055,-24.1875 74.8124923706055,-24.1875 74.8124923706055,-24.1875 " stroke="#000000" fill="none" stroke-width="1" stroke-opacity="1" />
  <path d="M74.8124923706055,-133.875015258789 C74.8124847412109,-120.827285766602 58.1910667419434,-110.250007629395 37.6875114440918,-110.250007629395 C17.1839408874512,-110.25 0.562505722045898,-120.827270507813 0.5625,-133.875 C0.5625,-133.875 0.5625,-133.875 0.5625,-133.875 L0.5625,-133.874984741211 C0.562479972839355,-146.922714233398 17.1838989257813,-157.5 37.6874656677246,-157.5 C58.1910362243652,-157.500015258789 74.8124771118164,-146.922744750977 74.8124923706055,-133.875 C74.8124923706055,-133.875 74.8124923706055,-133.875 74.8124923706055,-133.875 " stroke="none" fill="#0099CC" fill-rule="evenodd" stroke-width="0" fill-opacity="1" />
  <text x="21.6726894378662" y="37.236442565918" dx="0" dy="0" font-family="Arial" font-size="9.74999970942737pt" fill="#000000" style="text-anchor:start" transform="matrix(0.750000 0.000000 0.000000 0.750000 0.5625 -157.5)">Streams</text>
  <path d="M74.8124923706055,-133.875015258789 C74.8124847412109,-120.827285766602 58.1910667419434,-110.250007629395 37.6875114440918,-110.250007629395 C17.1839408874512,-110.25 0.562505722045898,-120.827270507813 0.5625,-133.875 C0.5625,-133.875 0.5625,-133.875 0.5625,-133.875 L0.5625,-133.874984741211 C0.562479972839355,-146.922714233398 17.1838989257813,-157.5 37.6874656677246,-157.5 C58.1910362243652,-157.500015258789 74.8124771118164,-146.922744750977 74.8124923706055,-133.875 C74.8124923706055,-133.875 74.8124923706055,-133.875 74.8124923706055,-133.875 " stroke="#000000" fill="none" stroke-width="1" stroke-opacity="1" />
  <path d="M100.191436767578,-47.8125 L157.433547973633,-47.8125 L157.433532714844,-47.8125 C162.130126953125,-47.8125076293945 165.937484741211,-44.0051727294922 165.937484741211,-39.3085670471191 C165.937484741211,-39.3085670471191 165.937484741211,-39.3085632324219 165.937484741211,-39.3085632324219 L165.9375,-39.3085632324219 L165.9375,-9.06643676757813 L165.937484741211,-9.06644439697266 C165.937484741211,-4.36985015869141 162.130142211914,-0.562507629394531 157.433547973633,-0.562503814697266 L157.433547973633,-0.5625 L100.191436767578,-0.5625 L100.191436767578,-0.562503814697266 C95.4948425292969,-0.5625 91.6875,-4.36984252929688 91.6875,-9.06643676757813 L91.6875,-39.3085632324219 L91.6874923706055,-39.3085594177246 C91.6874923706055,-44.0051536560059 95.4948272705078,-47.8125 100.191421508789,-47.8125038146973 " stroke="none" fill="#FFCC33" fill-rule="evenodd" stroke-width="0" fill-opacity="1" />
  <text x="29.2493553161621" y="37.236442565918" dx="0" dy="0" font-family="Arial" font-size="9.74999970942737pt" fill="#000000" style="text-anchor:start" transform="matrix(0.750000 0.000000 0.000000 0.750000 91.6875 -47.8125)">Slope</text>
  <path d="M100.191436767578,-47.8125 L157.433547973633,-47.8125 L157.433532714844,-47.8125 C162.130126953125,-47.8125076293945 165.937484741211,-44.0051727294922 165.937484741211,-39.3085670471191 C165.937484741211,-39.3085670471191 165.937484741211,-39.3085632324219 165.937484741211,-39.3085632324219 L165.9375,-39.3085632324219 L165.9375,-9.06643676757813 L165.937484741211,-9.06644439697266 C165.937484741211,-4.36985015869141 162.130142211914,-0.562507629394531 157.433547973633,-0.562503814697266 L157.433547973633,-0.5625 L100.191436767578,-0.5625 L100.191436767578,-0.562503814697266 C95.4948425292969,-0.5625 91.6875,-4.36984252929688 91.6875,-9.06643676757813 L91.6875,-39.3085632324219 L91.6874923706055,-39.3085594177246 C91.6874923706055,-44.0051536560059 95.4948272705078,-47.8125 100.191421508789,-47.8125038146973 " stroke="#000000" fill="none" stroke-width="1" stroke-opacity="1" />
  <path d="M257.062469482422,-24.1875057220459 C257.062469482422,-11.1397819519043 240.441055297852,-0.562507629394531 219.9375,-0.562503814697266 C199.433929443359,-0.5625 182.8125,-11.1397705078125 182.8125,-24.1875 C182.8125,-24.1875 182.8125,-24.1875 182.8125,-24.1875 L182.8125,-24.1874828338623 C182.812469482422,-37.2352104187012 199.433898925781,-47.8124923706055 219.937454223633,-47.8125 C240.441024780273,-47.8125114440918 257.062469482422,-37.2352447509766 257.062469482422,-24.1875 C257.062469482422,-24.1875 257.062469482422,-24.1875 257.062469482422,-24.1875 " stroke="none" fill="#66CC66" fill-rule="evenodd" stroke-width="0" fill-opacity="1" />
  <text x="19.4993553161621" y="37.236442565918" dx="0" dy="0" font-family="Arial" font-size="9.74999970942737pt" fill="#000000" style="text-anchor:start" transform="matrix(0.750000 0.000000 0.000000 0.750000 182.8125 -47.8125)">Slope (2)</text>
  <path d="M257.062469482422,-24.1875057220459 C257.062469482422,-11.1397819519043 240.441055297852,-0.562507629394531 219.9375,-0.562503814697266 C199.433929443359,-0.5625 182.8125,-11.1397705078125 182.8125,-24.1875 C182.8125,-24.1875 182.8125,-24.1875 182.8125,-24.1875 L182.8125,-24.1874828338623 C182.812469482422,-37.2352104187012 199.433898925781,-47.8124923706055 219.937454223633,-47.8125 C240.441024780273,-47.8125114440918 257.062469482422,-37.2352447509766 257.062469482422,-24.1875 C257.062469482422,-24.1875 257.062469482422,-24.1875 257.062469482422,-24.1875 " stroke="#000000" fill="none" stroke-width="1" stroke-opacity="1" />
  <path d="M100.191436767578,-157.5 L157.433547973633,-157.5 L157.433532714844,-157.5 C162.130126953125,-157.500015258789 165.937484741211,-153.692672729492 165.937484741211,-148.996078491211 C165.937484741211,-148.996078491211 165.937484741211,-148.996063232422 165.937484741211,-148.996063232422 L165.9375,-148.996063232422 L165.9375,-118.753936767578 L165.937484741211,-118.753944396973 C165.937484741211,-114.057350158691 162.130142211914,-110.250007629395 157.433547973633,-110.250007629395 L157.433547973633,-110.25 L100.191436767578,-110.25 L100.191436767578,-110.250007629395 C95.4948425292969,-110.25 91.6875,-114.057342529297 91.6875,-118.753936767578 L91.6875,-148.996063232422 L91.6874923706055,-148.996063232422 C91.6874923706055,-153.692657470703 95.4948272705078,-157.5 100.191421508789,-157.500015258789 " stroke="none" fill="#FFCC33" fill-rule="evenodd" stroke-width="0" fill-opacity="1" />
  <text x="17.3260231018066" y="29.7614459991455" dx="0" dy="0" font-family="Arial" font-size="9.74999970942737pt" fill="#000000" style="text-anchor:start" transform="matrix(0.750000 0.000000 0.000000 0.750000 91.6875 -157.5)">Euclidean </text>
  <text x="20.2285232543945" y="44.7114448547363" dx="0" dy="0" font-family="Arial" font-size="9.74999970942737pt" fill="#000000" style="text-anchor:start" transform="matrix(0.750000 0.000000 0.000000 0.750000 91.6875 -157.5)">Distance</text>
  <path d="M100.191436767578,-157.5 L157.433547973633,-157.5 L157.433532714844,-157.5 C162.130126953125,-157.500015258789 165.937484741211,-153.692672729492 165.937484741211,-148.996078491211 C165.937484741211,-148.996078491211 165.937484741211,-148.996063232422 165.937484741211,-148.996063232422 L165.9375,-148.996063232422 L165.9375,-118.753936767578 L165.937484741211,-118.753944396973 C165.937484741211,-114.057350158691 162.130142211914,-110.250007629395 157.433547973633,-110.250007629395 L157.433547973633,-110.25 L100.191436767578,-110.25 L100.191436767578,-110.250007629395 C95.4948425292969,-110.25 91.6875,-114.057342529297 91.6875,-118.753936767578 L91.6875,-148.996063232422 L91.6874923706055,-148.996063232422 C91.6874923706055,-153.692657470703 95.4948272705078,-157.5 100.191421508789,-157.500015258789 " stroke="#000000" fill="none" stroke-width="1" stroke-opacity="1" />
  <path d="M257.062469482422,-170.437515258789 C257.062469482422,-157.389785766602 240.441055297852,-146.812515258789 219.9375,-146.812515258789 C199.433929443359,-146.8125 182.8125,-157.389770507813 182.8125,-170.4375 C182.8125,-170.4375 182.8125,-170.4375 182.8125,-170.4375 L182.8125,-170.437484741211 C182.812469482422,-183.485214233398 199.433898925781,-194.0625 219.937454223633,-194.0625 C240.441024780273,-194.062515258789 257.062469482422,-183.485244750977 257.062469482422,-170.4375 C257.062469482422,-170.4375 257.062469482422,-170.4375 257.062469482422,-170.4375 " stroke="none" fill="#66CC66" fill-rule="evenodd" stroke-width="0" fill-opacity="1" />
  <text x="1.80518901348114" y="37.236442565918" dx="0" dy="0" font-family="Arial" font-size="9.74999970942737pt" fill="#000000" style="text-anchor:start" transform="matrix(0.750000 0.000000 0.000000 0.750000 182.8125 -194.0625)">Distance_Str</text>
  <text x="74.4181900024414" y="37.236442565918" dx="0" dy="0" font-family="Arial" font-size="9.74999970942737pt" fill="#000000" style="text-anchor:start" transform="matrix(0.750000 0.000000 0.000000 0.750000 182.8125 -194.0625)"> ...</text>
  <path d="M257.062469482422,-170.437515258789 C257.062469482422,-157.389785766602 240.441055297852,-146.812515258789 219.9375,-146.812515258789 C199.433929443359,-146.8125 182.8125,-157.389770507813 182.8125,-170.4375 C182.8125,-170.4375 182.8125,-170.4375 182.8125,-170.4375 L182.8125,-170.437484741211 C182.812469482422,-183.485214233398 199.433898925781,-194.0625 219.937454223633,-194.0625 C240.441024780273,-194.062515258789 257.062469482422,-183.485244750977 257.062469482422,-170.4375 C257.062469482422,-170.4375 257.062469482422,-170.4375 257.062469482422,-170.4375 " stroke="#000000" fill="none" stroke-width="1" stroke-opacity="1" />
  <path d="M257.062469482422,-97.3125076293945 C257.062469482422,-84.2647857666016 240.441055297852,-73.6875076293945 219.9375,-73.6875076293945 C199.433929443359,-73.6875 182.8125,-84.2647705078125 182.8125,-97.3125 C182.8125,-97.3125 182.8125,-97.3125 182.8125,-97.3125 L182.8125,-97.3124847412109 C182.812469482422,-110.360214233398 199.433898925781,-120.937492370605 219.937454223633,-120.9375 C240.441024780273,-120.937515258789 257.062469482422,-110.360244750977 257.062469482422,-97.3125 C257.062469482422,-97.3125 257.062469482422,-97.3125 257.062469482422,-97.3125 " stroke="none" fill="#E7E7E7" fill-rule="evenodd" stroke-width="0" fill-opacity="1" />
  <text x="25.6378555297852" y="29.7614459991455" dx="0" dy="0" font-family="Arial" font-size="9.74999970942737pt" fill="#000000" style="text-anchor:start" transform="matrix(0.750000 0.000000 0.000000 0.750000 182.8125 -120.9375)">Output </text>
  <text x="3.60085582733154" y="44.7114448547363" dx="0" dy="0" font-family="Arial" font-size="9.74999970942737pt" fill="#000000" style="text-anchor:start" transform="matrix(0.750000 0.000000 0.000000 0.750000 182.8125 -120.9375)">direction raster</text>
  <path d="M257.062469482422,-97.3125076293945 C257.062469482422,-84.2647857666016 240.441055297852,-73.6875076293945 219.9375,-73.6875076293945 C199.433929443359,-73.6875 182.8125,-84.2647705078125 182.8125,-97.3125 C182.8125,-97.3125 182.8125,-97.3125 182.8125,-97.3125 L182.8125,-97.3124847412109 C182.812469482422,-110.360214233398 199.433898925781,-120.937492370605 219.937454223633,-120.9375 C240.441024780273,-120.937515258789 257.062469482422,-110.360244750977 257.062469482422,-97.3125 C257.062469482422,-97.3125 257.062469482422,-97.3125 257.062469482422,-97.3125 " stroke="#000000" fill="none" stroke-width="1" stroke-opacity="1" />
  <path d="M282.441436767578,-267.1875 L339.683532714844,-267.1875 L339.683532714844,-267.1875 C344.380126953125,-267.187530517578 348.187469482422,-263.380187988281 348.187469482422,-258.68359375 C348.187469482422,-258.68359375 348.187469482422,-258.683563232422 348.187469482422,-258.683563232422 L348.1875,-258.683563232422 L348.1875,-228.441436767578 L348.187469482422,-228.441452026367 C348.187469482422,-223.744857788086 344.380126953125,-219.937515258789 339.683532714844,-219.937515258789 L339.683532714844,-219.9375 L282.441436767578,-219.9375 L282.441436767578,-219.937515258789 C277.744842529297,-219.9375 273.9375,-223.744842529297 273.9375,-228.441436767578 L273.9375,-258.683563232422 L273.937469482422,-258.683563232422 C273.937469482422,-263.380157470703 277.744812011719,-267.1875 282.44140625,-267.187530517578 " stroke="none" fill="#FFCC33" fill-rule="evenodd" stroke-width="0" fill-opacity="1" />
  <text x="15.8985223770142" y="37.236442565918" dx="0" dy="0" font-family="Arial" font-size="9.74999970942737pt" fill="#000000" style="text-anchor:start" transform="matrix(0.750000 0.000000 0.000000 0.750000 273.9375 -267.1875)">Reclassify</text>
  <path d="M282.441436767578,-267.1875 L339.683532714844,-267.1875 L339.683532714844,-267.1875 C344.380126953125,-267.187530517578 348.187469482422,-263.380187988281 348.187469482422,-258.68359375 C348.187469482422,-258.68359375 348.187469482422,-258.683563232422 348.187469482422,-258.683563232422 L348.1875,-258.683563232422 L348.1875,-228.441436767578 L348.187469482422,-228.441452026367 C348.187469482422,-223.744857788086 344.380126953125,-219.937515258789 339.683532714844,-219.937515258789 L339.683532714844,-219.9375 L282.441436767578,-219.9375 L282.441436767578,-219.937515258789 C277.744842529297,-219.9375 273.9375,-223.744842529297 273.9375,-228.441436767578 L273.9375,-258.683563232422 L273.937469482422,-258.683563232422 C273.937469482422,-263.380157470703 277.744812011719,-267.1875 282.44140625,-267.187530517578 " stroke="#000000" fill="none" stroke-width="1" stroke-opacity="1" />
  <path d="M439.312469482422,-243.562515258789 C439.312469482422,-230.514785766602 422.691040039063,-219.937515258789 402.1875,-219.937515258789 C381.683929443359,-219.9375 365.0625,-230.514770507813 365.0625,-243.5625 C365.0625,-243.5625 365.0625,-243.5625 365.0625,-243.5625 L365.0625,-243.562484741211 C365.062469482422,-256.610229492188 381.683898925781,-267.1875 402.187438964844,-267.1875 C422.691009521484,-267.187530517578 439.312469482422,-256.610260009766 439.312469482422,-243.5625 C439.312469482422,-243.5625 439.312469482422,-243.5625 439.312469482422,-243.5625 " stroke="none" fill="#66CC66" fill-rule="evenodd" stroke-width="0" fill-opacity="1" />
  <text x="3.37052249908447" y="37.236442565918" dx="0" dy="0" font-family="Arial" font-size="9.74999970942737pt" fill="#000000" style="text-anchor:start" transform="matrix(0.750000 0.000000 0.000000 0.750000 365.0625 -267.1875)">Transformed</text>
  <text x="73.8148574829102" y="37.236442565918" dx="0" dy="0" font-family="Arial" font-size="9.74999970942737pt" fill="#000000" style="text-anchor:start" transform="matrix(0.750000 0.000000 0.000000 0.750000 365.0625 -267.1875)"> ...</text>
  <path d="M439.312469482422,-243.562515258789 C439.312469482422,-230.514785766602 422.691040039063,-219.937515258789 402.1875,-219.937515258789 C381.683929443359,-219.9375 365.0625,-230.514770507813 365.0625,-243.5625 C365.0625,-243.5625 365.0625,-243.5625 365.0625,-243.5625 L365.0625,-243.562484741211 C365.062469482422,-256.610229492188 381.683898925781,-267.1875 402.187438964844,-267.1875 C422.691009521484,-267.187530517578 439.312469482422,-256.610260009766 439.312469482422,-243.5625 C439.312469482422,-243.5625 439.312469482422,-243.5625 439.312469482422,-243.5625 " stroke="#000000" fill="none" stroke-width="1" stroke-opacity="1" />
  <path d="M282.441436767578,-47.8125 L339.683532714844,-47.8125 L339.683532714844,-47.8125 C344.380126953125,-47.8125076293945 348.187469482422,-44.0051727294922 348.187469482422,-39.3085670471191 C348.187469482422,-39.3085670471191 348.187469482422,-39.3085632324219 348.187469482422,-39.3085632324219 L348.1875,-39.3085632324219 L348.1875,-9.06643676757813 L348.187469482422,-9.06644439697266 C348.187469482422,-4.36985015869141 344.380126953125,-0.562507629394531 339.683532714844,-0.562503814697266 L339.683532714844,-0.5625 L282.441436767578,-0.5625 L282.441436767578,-0.562503814697266 C277.744842529297,-0.5625 273.9375,-4.36984252929688 273.9375,-9.06643676757813 L273.9375,-39.3085632324219 L273.937469482422,-39.3085594177246 C273.937469482422,-44.0051536560059 277.744812011719,-47.8125 282.44140625,-47.8125038146973 " stroke="none" fill="#FFCC33" fill-rule="evenodd" stroke-width="0" fill-opacity="1" />
  <text x="13.361855506897" y="29.7614459991455" dx="0" dy="0" font-family="Arial" font-size="9.74999970942737pt" fill="#000000" style="text-anchor:start" transform="matrix(0.750000 0.000000 0.000000 0.750000 273.9375 -47.8125)">Rescale by </text>
  <text x="21.3066902160645" y="44.7114448547363" dx="0" dy="0" font-family="Arial" font-size="9.74999970942737pt" fill="#000000" style="text-anchor:start" transform="matrix(0.750000 0.000000 0.000000 0.750000 273.9375 -47.8125)">Function</text>
  <path d="M282.441436767578,-47.8125 L339.683532714844,-47.8125 L339.683532714844,-47.8125 C344.380126953125,-47.8125076293945 348.187469482422,-44.0051727294922 348.187469482422,-39.3085670471191 C348.187469482422,-39.3085670471191 348.187469482422,-39.3085632324219 348.187469482422,-39.3085632324219 L348.1875,-39.3085632324219 L348.1875,-9.06643676757813 L348.187469482422,-9.06644439697266 C348.187469482422,-4.36985015869141 344.380126953125,-0.562507629394531 339.683532714844,-0.562503814697266 L339.683532714844,-0.5625 L282.441436767578,-0.5625 L282.441436767578,-0.562503814697266 C277.744842529297,-0.5625 273.9375,-4.36984252929688 273.9375,-9.06643676757813 L273.9375,-39.3085632324219 L273.937469482422,-39.3085594177246 C273.937469482422,-44.0051536560059 277.744812011719,-47.8125 282.44140625,-47.8125038146973 " stroke="#000000" fill="none" stroke-width="1" stroke-opacity="1" />
  <path d="M439.312469482422,-24.1875057220459 C439.312469482422,-11.1397819519043 422.691040039063,-0.562507629394531 402.1875,-0.562503814697266 C381.683929443359,-0.5625 365.0625,-11.1397705078125 365.0625,-24.1875 C365.0625,-24.1875 365.0625,-24.1875 365.0625,-24.1875 L365.0625,-24.1874828338623 C365.062469482422,-37.2352104187012 381.683898925781,-47.8124923706055 402.187438964844,-47.8125 C422.691009521484,-47.8125114440918 439.312469482422,-37.2352447509766 439.312469482422,-24.1875 C439.312469482422,-24.1875 439.312469482422,-24.1875 439.312469482422,-24.1875 " stroke="none" fill="#66CC66" fill-rule="evenodd" stroke-width="0" fill-opacity="1" />
  <text x="3.37052249908447" y="37.236442565918" dx="0" dy="0" font-family="Arial" font-size="9.74999970942737pt" fill="#000000" style="text-anchor:start" transform="matrix(0.750000 0.000000 0.000000 0.750000 365.0625 -47.8125)">Transformed</text>
  <text x="73.8148574829102" y="37.236442565918" dx="0" dy="0" font-family="Arial" font-size="9.74999970942737pt" fill="#000000" style="text-anchor:start" transform="matrix(0.750000 0.000000 0.000000 0.750000 365.0625 -47.8125)"> ...</text>
  <path d="M439.312469482422,-24.1875057220459 C439.312469482422,-11.1397819519043 422.691040039063,-0.562507629394531 402.1875,-0.562503814697266 C381.683929443359,-0.5625 365.0625,-11.1397705078125 365.0625,-24.1875 C365.0625,-24.1875 365.0625,-24.1875 365.0625,-24.1875 L365.0625,-24.1874828338623 C365.062469482422,-37.2352104187012 381.683898925781,-47.8124923706055 402.187438964844,-47.8125 C422.691009521484,-47.8125114440918 439.312469482422,-37.2352447509766 439.312469482422,-24.1875 C439.312469482422,-24.1875 439.312469482422,-24.1875 439.312469482422,-24.1875 " stroke="#000000" fill="none" stroke-width="1" stroke-opacity="1" />
  <path d="M282.441436767578,-194.0625 L339.683532714844,-194.0625 L339.683532714844,-194.0625 C344.380126953125,-194.062515258789 348.187469482422,-190.255172729492 348.187469482422,-185.558578491211 C348.187469482422,-185.558578491211 348.187469482422,-185.558563232422 348.187469482422,-185.558563232422 L348.1875,-185.558563232422 L348.1875,-155.316436767578 L348.187469482422,-155.316452026367 C348.187469482422,-150.619857788086 344.380126953125,-146.812515258789 339.683532714844,-146.812515258789 L339.683532714844,-146.8125 L282.441436767578,-146.8125 L282.441436767578,-146.812515258789 C277.744842529297,-146.8125 273.9375,-150.619842529297 273.9375,-155.316436767578 L273.9375,-185.558563232422 L273.937469482422,-185.558563232422 C273.937469482422,-190.255157470703 277.744812011719,-194.0625 282.44140625,-194.062515258789 " stroke="none" fill="#FFCC33" fill-rule="evenodd" stroke-width="0" fill-opacity="1" />
  <text x="13.361855506897" y="29.7614459991455" dx="0" dy="0" font-family="Arial" font-size="9.74999970942737pt" fill="#000000" style="text-anchor:start" transform="matrix(0.750000 0.000000 0.000000 0.750000 273.9375 -194.0625)">Rescale by </text>
  <text x="11.5566883087158" y="44.7114448547363" dx="0" dy="0" font-family="Arial" font-size="9.74999970942737pt" fill="#000000" style="text-anchor:start" transform="matrix(0.750000 0.000000 0.000000 0.750000 273.9375 -194.0625)">Function (2)</text>
  <path d="M282.441436767578,-194.0625 L339.683532714844,-194.0625 L339.683532714844,-194.0625 C344.380126953125,-194.062515258789 348.187469482422,-190.255172729492 348.187469482422,-185.558578491211 C348.187469482422,-185.558578491211 348.187469482422,-185.558563232422 348.187469482422,-185.558563232422 L348.1875,-185.558563232422 L348.1875,-155.316436767578 L348.187469482422,-155.316452026367 C348.187469482422,-150.619857788086 344.380126953125,-146.812515258789 339.683532714844,-146.812515258789 L339.683532714844,-146.8125 L282.441436767578,-146.8125 L282.441436767578,-146.812515258789 C277.744842529297,-146.8125 273.9375,-150.619842529297 273.9375,-155.316436767578 L273.9375,-185.558563232422 L273.937469482422,-185.558563232422 C273.937469482422,-190.255157470703 277.744812011719,-194.0625 282.44140625,-194.062515258789 " stroke="#000000" fill="none" stroke-width="1" stroke-opacity="1" />
  <path d="M439.312469482422,-170.437515258789 C439.312469482422,-157.389785766602 422.691040039063,-146.812515258789 402.1875,-146.812515258789 C381.683929443359,-146.8125 365.0625,-157.389770507813 365.0625,-170.4375 C365.0625,-170.4375 365.0625,-170.4375 365.0625,-170.4375 L365.0625,-170.437484741211 C365.062469482422,-183.485214233398 381.683898925781,-194.0625 402.187438964844,-194.0625 C422.691009521484,-194.062515258789 439.312469482422,-183.485244750977 439.312469482422,-170.4375 C439.312469482422,-170.4375 439.312469482422,-170.4375 439.312469482422,-170.4375 " stroke="none" fill="#66CC66" fill-rule="evenodd" stroke-width="0" fill-opacity="1" />
  <text x="3.37052249908447" y="37.236442565918" dx="0" dy="0" font-family="Arial" font-size="9.74999970942737pt" fill="#000000" style="text-anchor:start" transform="matrix(0.750000 0.000000 0.000000 0.750000 365.0625 -194.0625)">Transformed</text>
  <text x="73.8148574829102" y="37.236442565918" dx="0" dy="0" font-family="Arial" font-size="9.74999970942737pt" fill="#000000" style="text-anchor:start" transform="matrix(0.750000 0.000000 0.000000 0.750000 365.0625 -194.0625)"> ...</text>
  <path d="M439.312469482422,-170.437515258789 C439.312469482422,-157.389785766602 422.691040039063,-146.812515258789 402.1875,-146.812515258789 C381.683929443359,-146.8125 365.0625,-157.389770507813 365.0625,-170.4375 C365.0625,-170.4375 365.0625,-170.4375 365.0625,-170.4375 L365.0625,-170.437484741211 C365.062469482422,-183.485214233398 381.683898925781,-194.0625 402.187438964844,-194.0625 C422.691009521484,-194.062515258789 439.312469482422,-183.485244750977 439.312469482422,-170.4375 C439.312469482422,-170.4375 439.312469482422,-170.4375 439.312469482422,-170.4375 " stroke="#000000" fill="none" stroke-width="1" stroke-opacity="1" />
  <path d="M464.691436767578,-194.0625 L521.933532714844,-194.0625 L521.933532714844,-194.0625 C526.630126953125,-194.062515258789 530.437438964844,-190.255172729492 530.437438964844,-185.558578491211 C530.437438964844,-185.558578491211 530.437438964844,-185.558563232422 530.437438964844,-185.558563232422 L530.4375,-185.558563232422 L530.4375,-155.316436767578 L530.437438964844,-155.316452026367 C530.437438964844,-150.619857788086 526.630126953125,-146.812515258789 521.933532714844,-146.812515258789 L521.933532714844,-146.8125 L464.691436767578,-146.8125 L464.691436767578,-146.812515258789 C459.994842529297,-146.8125 456.1875,-150.619842529297 456.1875,-155.316436767578 L456.1875,-185.558563232422 L456.187469482422,-185.558563232422 C456.187469482422,-190.255157470703 459.994812011719,-194.0625 464.69140625,-194.062515258789 " stroke="none" fill="#FFCC33" fill-rule="evenodd" stroke-width="0" fill-opacity="1" />
  <text x="26.368522644043" y="29.7614459991455" dx="0" dy="0" font-family="Arial" font-size="9.74999970942737pt" fill="#000000" style="text-anchor:start" transform="matrix(0.750000 0.000000 0.000000 0.750000 456.1875 -194.0625)">Raster </text>
  <text x="16.2551898956299" y="44.7114448547363" dx="0" dy="0" font-family="Arial" font-size="9.74999970942737pt" fill="#000000" style="text-anchor:start" transform="matrix(0.750000 0.000000 0.000000 0.750000 456.1875 -194.0625)">Calculator</text>
  <path d="M464.691436767578,-194.0625 L521.933532714844,-194.0625 L521.933532714844,-194.0625 C526.630126953125,-194.062515258789 530.437438964844,-190.255172729492 530.437438964844,-185.558578491211 C530.437438964844,-185.558578491211 530.437438964844,-185.558563232422 530.437438964844,-185.558563232422 L530.4375,-185.558563232422 L530.4375,-155.316436767578 L530.437438964844,-155.316452026367 C530.437438964844,-150.619857788086 526.630126953125,-146.812515258789 521.933532714844,-146.812515258789 L521.933532714844,-146.8125 L464.691436767578,-146.8125 L464.691436767578,-146.812515258789 C459.994842529297,-146.8125 456.1875,-150.619842529297 456.1875,-155.316436767578 L456.1875,-185.558563232422 L456.187469482422,-185.558563232422 C456.187469482422,-190.255157470703 459.994812011719,-194.0625 464.69140625,-194.062515258789 " stroke="#000000" fill="none" stroke-width="1" stroke-opacity="1" />
  <path d="M621.562438964844,-170.437515258789 C621.562438964844,-157.389785766602 604.941040039063,-146.812515258789 584.4375,-146.812515258789 C563.933898925781,-146.8125 547.3125,-157.389770507813 547.3125,-170.4375 C547.3125,-170.4375 547.3125,-170.4375 547.3125,-170.4375 L547.3125,-170.437484741211 C547.312438964844,-183.485214233398 563.933898925781,-194.0625 584.437438964844,-194.0625 C604.940979003906,-194.062515258789 621.562438964844,-183.485244750977 621.562438964844,-170.4375 C621.562438964844,-170.4375 621.562438964844,-170.4375 621.562438964844,-170.4375 " stroke="none" fill="#66CC66" fill-rule="evenodd" stroke-width="0" fill-opacity="1" />
  <text x="0.725188970565796" y="37.236442565918" dx="0" dy="0" font-family="Arial" font-size="9.74999970942737pt" fill="#000000" style="text-anchor:start" transform="matrix(0.750000 0.000000 0.000000 0.750000 547.3125 -194.0625)">RastCalc_Ha</text>
  <text x="75.4981918334961" y="37.236442565918" dx="0" dy="0" font-family="Arial" font-size="9.74999970942737pt" fill="#000000" style="text-anchor:start" transform="matrix(0.750000 0.000000 0.000000 0.750000 547.3125 -194.0625)"> ...</text>
  <path d="M621.562438964844,-170.437515258789 C621.562438964844,-157.389785766602 604.941040039063,-146.812515258789 584.4375,-146.812515258789 C563.933898925781,-146.8125 547.3125,-157.389770507813 547.3125,-170.4375 C547.3125,-170.4375 547.3125,-170.4375 547.3125,-170.4375 L547.3125,-170.437484741211 C547.312438964844,-183.485214233398 563.933898925781,-194.0625 584.437438964844,-194.0625 C604.940979003906,-194.062515258789 621.562438964844,-183.485244750977 621.562438964844,-170.4375 C621.562438964844,-170.4375 621.562438964844,-170.4375 621.562438964844,-170.4375 " stroke="#000000" fill="none" stroke-width="1" stroke-opacity="1" />
  <path d="M679.56640625,-188.4375 L736.808532714844,-188.4375 L736.808532714844,-188.4375 C741.505126953125,-188.437515258789 745.312438964844,-184.630172729492 745.312438964844,-179.933578491211 C745.312438964844,-179.933578491211 745.312438964844,-179.933563232422 745.312438964844,-179.933563232422 L745.3125,-179.933563232422 L745.3125,-149.691436767578 L745.312438964844,-149.691452026367 C745.312438964844,-144.994857788086 741.505126953125,-141.187515258789 736.808532714844,-141.187515258789 L736.808532714844,-141.1875 L679.56640625,-141.1875 L679.56640625,-141.187515258789 C674.869812011719,-141.1875 671.0625,-144.994842529297 671.0625,-149.691436767578 L671.0625,-179.933563232422 L671.062438964844,-179.933563232422 C671.062438964844,-184.630157470703 674.869812011719,-188.4375 679.56640625,-188.437515258789 " stroke="none" fill="#FFCC33" fill-rule="evenodd" stroke-width="0" fill-opacity="1" />
  <text x="26.368522644043" y="29.7614459991455" dx="0" dy="0" font-family="Arial" font-size="9.74999970942737pt" fill="#000000" style="text-anchor:start" transform="matrix(0.750000 0.000000 0.000000 0.750000 671.0625 -188.4375)">Raster </text>
  <text x="6.50185585021973" y="44.7114448547363" dx="0" dy="0" font-family="Arial" font-size="9.74999970942737pt" fill="#000000" style="text-anchor:start" transform="matrix(0.750000 0.000000 0.000000 0.750000 671.0625 -188.4375)">Calculator (2)</text>
  <path d="M679.56640625,-188.4375 L736.808532714844,-188.4375 L736.808532714844,-188.4375 C741.505126953125,-188.437515258789 745.312438964844,-184.630172729492 745.312438964844,-179.933578491211 C745.312438964844,-179.933578491211 745.312438964844,-179.933563232422 745.312438964844,-179.933563232422 L745.3125,-179.933563232422 L745.3125,-149.691436767578 L745.312438964844,-149.691452026367 C745.312438964844,-144.994857788086 741.505126953125,-141.187515258789 736.808532714844,-141.187515258789 L736.808532714844,-141.1875 L679.56640625,-141.1875 L679.56640625,-141.187515258789 C674.869812011719,-141.1875 671.0625,-144.994842529297 671.0625,-149.691436767578 L671.0625,-179.933563232422 L671.062438964844,-179.933563232422 C671.062438964844,-184.630157470703 674.869812011719,-188.4375 679.56640625,-188.437515258789 " stroke="#000000" fill="none" stroke-width="1" stroke-opacity="1" />
  <path d="M835.312438964844,-164.812515258789 C835.312438964844,-151.764785766602 818.691040039063,-141.187515258789 798.1875,-141.187515258789 C777.683898925781,-141.1875 761.0625,-151.764770507813 761.0625,-164.8125 C761.0625,-164.8125 761.0625,-164.8125 761.0625,-164.8125 L761.0625,-164.812484741211 C761.062438964844,-177.860214233398 777.683898925781,-188.4375 798.187438964844,-188.4375 C818.690979003906,-188.437515258789 835.312438964844,-177.860244750977 835.312438964844,-164.8125 C835.312438964844,-164.8125 835.312438964844,-164.8125 835.312438964844,-164.8125 " stroke="none" fill="#66CC66" fill-rule="evenodd" stroke-width="0" fill-opacity="1" />
  <text x="0.00518900156021118" y="37.236442565918" dx="0" dy="0" font-family="Arial" font-size="9.74999970942737pt" fill="#000000" style="text-anchor:start" transform="matrix(0.750000 0.000000 0.000000 0.750000 761.0625 -188.4375)">RastCalc_Fin</text>
  <text x="76.2181930541992" y="37.236442565918" dx="0" dy="0" font-family="Arial" font-size="9.74999970942737pt" fill="#000000" style="text-anchor:start" transform="matrix(0.750000 0.000000 0.000000 0.750000 761.0625 -188.4375)"> ...</text>
  <path d="M835.312438964844,-164.812515258789 C835.312438964844,-151.764785766602 818.691040039063,-141.187515258789 798.1875,-141.187515258789 C777.683898925781,-141.1875 761.0625,-151.764770507813 761.0625,-164.8125 C761.0625,-164.8125 761.0625,-164.8125 761.0625,-164.8125 L761.0625,-164.812484741211 C761.062438964844,-177.860214233398 777.683898925781,-188.4375 798.187438964844,-188.4375 C818.690979003906,-188.437515258789 835.312438964844,-177.860244750977 835.312438964844,-164.8125 C835.312438964844,-164.8125 835.312438964844,-164.8125 835.312438964844,-164.8125 " stroke="#000000" fill="none" stroke-width="1" stroke-opacity="1" />
  <path d="M632.249938964844,-254.250015258789 C632.249938964844,-241.202285766602 615.628540039063,-230.625015258789 595.125,-230.625015258789 C574.621398925781,-230.625 558,-241.202270507813 558,-254.25 C558,-254.25 558,-254.25 558,-254.25 L558,-254.249984741211 C557.999938964844,-267.297729492188 574.621398925781,-277.875 595.124938964844,-277.875 C615.628479003906,-277.875030517578 632.249938964844,-267.297760009766 632.249938964844,-254.25 C632.249938964844,-254.25 632.249938964844,-254.25 632.249938964844,-254.25 " stroke="none" fill="#0099CC" fill-rule="evenodd" stroke-width="0" fill-opacity="1" />
  <text x="2.15335559844971" y="37.236442565918" dx="0" dy="0" font-family="Arial" font-size="9.74999970942737pt" fill="#000000" style="text-anchor:start" transform="matrix(0.750000 0.000000 0.000000 0.750000 558 -277.875)">FoodSubmodel</text>
  <path d="M632.249938964844,-254.250015258789 C632.249938964844,-241.202285766602 615.628540039063,-230.625015258789 595.125,-230.625015258789 C574.621398925781,-230.625 558,-241.202270507813 558,-254.25 C558,-254.25 558,-254.25 558,-254.25 L558,-254.249984741211 C557.999938964844,-267.297729492188 574.621398925781,-277.875 595.124938964844,-277.875 C615.628479003906,-277.875030517578 632.249938964844,-267.297760009766 632.249938964844,-254.25 C632.249938964844,-254.25 632.249938964844,-254.25 632.249938964844,-254.25 " stroke="#000000" fill="none" stroke-width="1" stroke-opacity="1" />
  <path d="M625.499938964844,-89.4375076293945 C625.499938964844,-76.3897857666016 608.878540039063,-65.8125076293945 588.375,-65.8125076293945 C567.871398925781,-65.8125 551.25,-76.3897705078125 551.25,-89.4375 C551.25,-89.4375 551.25,-89.4375 551.25,-89.4375 L551.25,-89.4374847412109 C551.249938964844,-102.485214233398 567.871398925781,-113.062492370605 588.374938964844,-113.0625 C608.878479003906,-113.062515258789 625.499938964844,-102.485244750977 625.499938964844,-89.4375 C625.499938964844,-89.4375 625.499938964844,-89.4375 625.499938964844,-89.4375 " stroke="none" fill="#0099CC" fill-rule="evenodd" stroke-width="0" fill-opacity="1" />
  <text x="4.32602214813232" y="37.236442565918" dx="0" dy="0" font-family="Arial" font-size="9.74999970942737pt" fill="#000000" style="text-anchor:start" transform="matrix(0.750000 0.000000 0.000000 0.750000 551.25 -113.0625)">SecuritySub</text>
  <text x="72.2515258789063" y="37.236442565918" dx="0" dy="0" font-family="Arial" font-size="9.74999970942737pt" fill="#000000" style="text-anchor:start" transform="matrix(0.750000 0.000000 0.000000 0.750000 551.25 -113.0625)"> ...</text>
  <path d="M625.499938964844,-89.4375076293945 C625.499938964844,-76.3897857666016 608.878540039063,-65.8125076293945 588.375,-65.8125076293945 C567.871398925781,-65.8125 551.25,-76.3897705078125 551.25,-89.4375 C551.25,-89.4375 551.25,-89.4375 551.25,-89.4375 L551.25,-89.4374847412109 C551.249938964844,-102.485214233398 567.871398925781,-113.062492370605 588.374938964844,-113.0625 C608.878479003906,-113.062515258789 625.499938964844,-102.485244750977 625.499938964844,-89.4375 C625.499938964844,-89.4375 625.499938964844,-89.4375 625.499938964844,-89.4375 " stroke="#000000" fill="none" stroke-width="1" stroke-opacity="1" />
  <path d="M815.062438964844,-312.750030517578 C815.062438964844,-299.702301025391 798.441040039063,-289.125030517578 777.9375,-289.125030517578 C757.433898925781,-289.125 740.8125,-299.702270507813 740.8125,-312.75 C740.8125,-312.75 740.8125,-312.75 740.8125,-312.75 L740.8125,-312.75 C740.812438964844,-325.797729492188 757.433898925781,-336.375 777.937438964844,-336.375 C798.440979003906,-336.375030517578 815.062438964844,-325.797760009766 815.062438964844,-312.75 C815.062438964844,-312.75 815.062438964844,-312.75 815.062438964844,-312.75 " stroke="none" fill="#0099CC" fill-rule="evenodd" stroke-width="0" fill-opacity="1" />
  <text x="2.51935577392578" y="37.236442565918" dx="0" dy="0" font-family="Arial" font-size="9.74999970942737pt" fill="#000000" style="text-anchor:start" transform="matrix(0.750000 0.000000 0.000000 0.750000 740.8125 -336.375)">ExistingRegion</text>
  <path d="M815.062438964844,-312.750030517578 C815.062438964844,-299.702301025391 798.441040039063,-289.125030517578 777.9375,-289.125030517578 C757.433898925781,-289.125 740.8125,-299.702270507813 740.8125,-312.75 C740.8125,-312.75 740.8125,-312.75 740.8125,-312.75 L740.8125,-312.75 C740.812438964844,-325.797729492188 757.433898925781,-336.375 777.937438964844,-336.375 C798.440979003906,-336.375030517578 815.062438964844,-325.797760009766 815.062438964844,-312.75 C815.062438964844,-312.75 815.062438964844,-312.75 815.062438964844,-312.75 " stroke="#000000" fill="none" stroke-width="1" stroke-opacity="1" />
  <path d="M867.44140625,-187.3125 L924.683532714844,-187.3125 L924.683532714844,-187.3125 C929.380126953125,-187.312515258789 933.187438964844,-183.505172729492 933.187438964844,-178.808578491211 C933.187438964844,-178.808578491211 933.187438964844,-178.808563232422 933.187438964844,-178.808563232422 L933.1875,-178.808563232422 L933.1875,-148.566436767578 L933.187438964844,-148.566452026367 C933.187438964844,-143.869857788086 929.380126953125,-140.062515258789 924.683532714844,-140.062515258789 L924.683532714844,-140.0625 L867.44140625,-140.0625 L867.44140625,-140.062515258789 C862.744812011719,-140.0625 858.9375,-143.869842529297 858.9375,-148.566436767578 L858.9375,-178.808563232422 L858.937438964844,-178.808563232422 C858.937438964844,-183.505157470703 862.744812011719,-187.3125 867.44140625,-187.312515258789 " stroke="none" fill="#FFCC33" fill-rule="evenodd" stroke-width="0" fill-opacity="1" />
  <text x="1.42418897151947" y="37.236442565918" dx="0" dy="0" font-family="Arial" font-size="9.74999970942737pt" fill="#000000" style="text-anchor:start" transform="matrix(0.750000 0.000000 0.000000 0.750000 858.9375 -187.3125)">Locate Regions</text>
  <path d="M867.44140625,-187.3125 L924.683532714844,-187.3125 L924.683532714844,-187.3125 C929.380126953125,-187.312515258789 933.187438964844,-183.505172729492 933.187438964844,-178.808578491211 C933.187438964844,-178.808578491211 933.187438964844,-178.808563232422 933.187438964844,-178.808563232422 L933.1875,-178.808563232422 L933.1875,-148.566436767578 L933.187438964844,-148.566452026367 C933.187438964844,-143.869857788086 929.380126953125,-140.062515258789 924.683532714844,-140.062515258789 L924.683532714844,-140.0625 L867.44140625,-140.0625 L867.44140625,-140.062515258789 C862.744812011719,-140.0625 858.9375,-143.869842529297 858.9375,-148.566436767578 L858.9375,-178.808563232422 L858.937438964844,-178.808563232422 C858.937438964844,-183.505157470703 862.744812011719,-187.3125 867.44140625,-187.312515258789 " stroke="#000000" fill="none" stroke-width="1" stroke-opacity="1" />
  <path d="M1023.18743896484,-163.687515258789 C1023.18743896484,-150.639785766602 1006.56604003906,-140.062515258789 986.0625,-140.062515258789 C965.558898925781,-140.0625 948.9375,-150.639770507813 948.9375,-163.6875 C948.9375,-163.6875 948.9375,-163.6875 948.9375,-163.6875 L948.9375,-163.687484741211 C948.937438964844,-176.735214233398 965.558898925781,-187.3125 986.062438964844,-187.3125 C1006.56597900391,-187.312515258789 1023.18743896484,-176.735244750977 1023.18743896484,-163.6875 C1023.18743896484,-163.6875 1023.18743896484,-163.6875 1023.18743896484,-163.6875 " stroke="none" fill="#66CC66" fill-rule="evenodd" stroke-width="0" fill-opacity="1" />
  <text x="8.66852188110352" y="37.236442565918" dx="0" dy="0" font-family="Arial" font-size="9.74999970942737pt" fill="#000000" style="text-anchor:start" transform="matrix(0.750000 0.000000 0.000000 0.750000 948.9375 -187.3125)">NewRegions</text>
  <path d="M1023.18743896484,-163.687515258789 C1023.18743896484,-150.639785766602 1006.56604003906,-140.062515258789 986.0625,-140.062515258789 C965.558898925781,-140.0625 948.9375,-150.639770507813 948.9375,-163.6875 C948.9375,-163.6875 948.9375,-163.6875 948.9375,-163.6875 L948.9375,-163.687484741211 C948.937438964844,-176.735214233398 965.558898925781,-187.3125 986.062438964844,-187.3125 C1006.56597900391,-187.312515258789 1023.18743896484,-176.735244750977 1023.18743896484,-163.6875 C1023.18743896484,-163.6875 1023.18743896484,-163.6875 1023.18743896484,-163.6875 " stroke="#000000" fill="none" stroke-width="1" stroke-opacity="1" />
  <path d="M848.31640625,-339.75 L905.558532714844,-339.75 L905.558532714844,-339.75 C910.255126953125,-339.750030517578 914.062438964844,-335.942687988281 914.062438964844,-331.24609375 C914.062438964844,-331.24609375 914.062438964844,-331.246063232422 914.062438964844,-331.246063232422 L914.0625,-331.246063232422 L914.0625,-301.003936767578 L914.062438964844,-301.003967285156 C914.062438964844,-296.307373046875 910.255126953125,-292.500030517578 905.558532714844,-292.500030517578 L905.558532714844,-292.5 L848.31640625,-292.5 L848.31640625,-292.500030517578 C843.619812011719,-292.5 839.8125,-296.307342529297 839.8125,-301.003936767578 L839.8125,-331.246063232422 L839.812438964844,-331.246063232422 C839.812438964844,-335.942657470703 843.619812011719,-339.75 848.31640625,-339.750030517578 " stroke="none" fill="#FFCC33" fill-rule="evenodd" stroke-width="0" fill-opacity="1" />
  <text x="6.14852237701416" y="37.236442565918" dx="0" dy="0" font-family="Arial" font-size="9.74999970942737pt" fill="#000000" style="text-anchor:start" transform="matrix(0.750000 0.000000 0.000000 0.750000 839.8125 -339.75)">Reclassify (2)</text>
  <path d="M848.31640625,-339.75 L905.558532714844,-339.75 L905.558532714844,-339.75 C910.255126953125,-339.750030517578 914.062438964844,-335.942687988281 914.062438964844,-331.24609375 C914.062438964844,-331.24609375 914.062438964844,-331.246063232422 914.062438964844,-331.246063232422 L914.0625,-331.246063232422 L914.0625,-301.003936767578 L914.062438964844,-301.003967285156 C914.062438964844,-296.307373046875 910.255126953125,-292.500030517578 905.558532714844,-292.500030517578 L905.558532714844,-292.5 L848.31640625,-292.5 L848.31640625,-292.500030517578 C843.619812011719,-292.5 839.8125,-296.307342529297 839.8125,-301.003936767578 L839.8125,-331.246063232422 L839.812438964844,-331.246063232422 C839.812438964844,-335.942657470703 843.619812011719,-339.75 848.31640625,-339.750030517578 " stroke="#000000" fill="none" stroke-width="1" stroke-opacity="1" />
  <path d="M1004.06243896484,-316.125030517578 C1004.06243896484,-303.077301025391 987.441040039063,-292.500030517578 966.9375,-292.500030517578 C946.433898925781,-292.5 929.8125,-303.077270507813 929.8125,-316.125 C929.8125,-316.125 929.8125,-316.125 929.8125,-316.125 L929.8125,-316.125 C929.812438964844,-329.172729492188 946.433898925781,-339.75 966.937438964844,-339.75 C987.440979003906,-339.750030517578 1004.06243896484,-329.172760009766 1004.06243896484,-316.125 C1004.06243896484,-316.125 1004.06243896484,-316.125 1004.06243896484,-316.125 " stroke="none" fill="#66CC66" fill-rule="evenodd" stroke-width="0" fill-opacity="1" />
  <text x="0.00518900156021118" y="37.236442565918" dx="0" dy="0" font-family="Arial" font-size="9.74999970942737pt" fill="#000000" style="text-anchor:start" transform="matrix(0.750000 0.000000 0.000000 0.750000 929.8125 -339.75)">Reclass_Exis</text>
  <text x="76.2181930541992" y="37.236442565918" dx="0" dy="0" font-family="Arial" font-size="9.74999970942737pt" fill="#000000" style="text-anchor:start" transform="matrix(0.750000 0.000000 0.000000 0.750000 929.8125 -339.75)"> ...</text>
  <path d="M1004.06243896484,-316.125030517578 C1004.06243896484,-303.077301025391 987.441040039063,-292.500030517578 966.9375,-292.500030517578 C946.433898925781,-292.5 929.8125,-303.077270507813 929.8125,-316.125 C929.8125,-316.125 929.8125,-316.125 929.8125,-316.125 L929.8125,-316.125 C929.812438964844,-329.172729492188 946.433898925781,-339.75 966.937438964844,-339.75 C987.440979003906,-339.750030517578 1004.06243896484,-329.172760009766 1004.06243896484,-316.125 C1004.06243896484,-316.125 1004.06243896484,-316.125 1004.06243896484,-316.125 " stroke="#000000" fill="none" stroke-width="1" stroke-opacity="1" />
  <path d="M1036.75390625,-274.5 L1093.99597167969,-274.5 L1093.99597167969,-274.5 C1098.69262695313,-274.500030517578 1102.49987792969,-270.692687988281 1102.49987792969,-265.99609375 C1102.49987792969,-265.99609375 1102.49987792969,-265.996063232422 1102.49987792969,-265.996063232422 L1102.5,-265.996063232422 L1102.5,-235.753936767578 L1102.49987792969,-235.753952026367 C1102.49987792969,-231.057357788086 1098.69262695313,-227.250015258789 1093.99597167969,-227.250015258789 L1093.99597167969,-227.25 L1036.75390625,-227.25 L1036.75390625,-227.250015258789 C1032.05725097656,-227.25 1028.25,-231.057342529297 1028.25,-235.753936767578 L1028.25,-265.996063232422 L1028.24987792969,-265.996063232422 C1028.24987792969,-270.692657470703 1032.05725097656,-274.5 1036.75390625,-274.500030517578 " stroke="none" fill="#FFCC33" fill-rule="evenodd" stroke-width="0" fill-opacity="1" />
  <text x="26.368522644043" y="29.7614459991455" dx="0" dy="0" font-family="Arial" font-size="9.74999970942737pt" fill="#000000" style="text-anchor:start" transform="matrix(0.750000 0.000000 0.000000 0.750000 1028.25 -274.5)">Raster </text>
  <text x="6.50185585021973" y="44.7114448547363" dx="0" dy="0" font-family="Arial" font-size="9.74999970942737pt" fill="#000000" style="text-anchor:start" transform="matrix(0.750000 0.000000 0.000000 0.750000 1028.25 -274.5)">Calculator (3)</text>
  <path d="M1036.75390625,-274.5 L1093.99597167969,-274.5 L1093.99597167969,-274.5 C1098.69262695313,-274.500030517578 1102.49987792969,-270.692687988281 1102.49987792969,-265.99609375 C1102.49987792969,-265.99609375 1102.49987792969,-265.996063232422 1102.49987792969,-265.996063232422 L1102.5,-265.996063232422 L1102.5,-235.753936767578 L1102.49987792969,-235.753952026367 C1102.49987792969,-231.057357788086 1098.69262695313,-227.250015258789 1093.99597167969,-227.250015258789 L1093.99597167969,-227.25 L1036.75390625,-227.25 L1036.75390625,-227.250015258789 C1032.05725097656,-227.25 1028.25,-231.057342529297 1028.25,-235.753936767578 L1028.25,-265.996063232422 L1028.24987792969,-265.996063232422 C1028.24987792969,-270.692657470703 1032.05725097656,-274.5 1036.75390625,-274.500030517578 " stroke="#000000" fill="none" stroke-width="1" stroke-opacity="1" />
  <path d="M1192.49987792969,-250.875015258789 C1192.49987792969,-237.827285766602 1175.87854003906,-227.250015258789 1155.375,-227.250015258789 C1134.87133789063,-227.25 1118.25,-237.827270507813 1118.25,-250.875 C1118.25,-250.875 1118.25,-250.875 1118.25,-250.875 L1118.25,-250.874984741211 C1118.24987792969,-263.922729492188 1134.87133789063,-274.5 1155.37487792969,-274.5 C1175.87841796875,-274.500030517578 1192.49987792969,-263.922760009766 1192.49987792969,-250.875 C1192.49987792969,-250.875 1192.49987792969,-250.875 1192.49987792969,-250.875 " stroke="none" fill="#66CC66" fill-rule="evenodd" stroke-width="0" fill-opacity="1" />
  <text x="1.08185565471649" y="37.236442565918" dx="0" dy="0" font-family="Arial" font-size="9.74999970942737pt" fill="#000000" style="text-anchor:start" transform="matrix(0.750000 0.000000 0.000000 0.750000 1118.25 -274.5)">Combined_R</text>
  <text x="75.1448593139648" y="37.236442565918" dx="0" dy="0" font-family="Arial" font-size="9.74999970942737pt" fill="#000000" style="text-anchor:start" transform="matrix(0.750000 0.000000 0.000000 0.750000 1118.25 -274.5)"> ...</text>
  <path d="M1192.49987792969,-250.875015258789 C1192.49987792969,-237.827285766602 1175.87854003906,-227.250015258789 1155.375,-227.250015258789 C1134.87133789063,-227.25 1118.25,-237.827270507813 1118.25,-250.875 C1118.25,-250.875 1118.25,-250.875 1118.25,-250.875 L1118.25,-250.874984741211 C1118.24987792969,-263.922729492188 1134.87133789063,-274.5 1155.37487792969,-274.5 C1175.87841796875,-274.500030517578 1192.49987792969,-263.922760009766 1192.49987792969,-250.875 C1192.49987792969,-250.875 1192.49987792969,-250.875 1192.49987792969,-250.875 " stroke="#000000" fill="none" stroke-width="1" stroke-opacity="1" />
  <path d="M1266.74987792969,-155.250015258789 C1266.74987792969,-142.202285766602 1250.12854003906,-131.625015258789 1229.625,-131.625015258789 C1209.12133789063,-131.625 1192.5,-142.202270507813 1192.5,-155.25 C1192.5,-155.25 1192.5,-155.25 1192.5,-155.25 L1192.5,-155.249984741211 C1192.49987792969,-168.297714233398 1209.12133789063,-178.875 1229.62487792969,-178.875 C1250.12841796875,-178.875015258789 1266.74987792969,-168.297744750977 1266.74987792969,-155.25 C1266.74987792969,-155.25 1266.74987792969,-155.25 1266.74987792969,-155.25 " stroke="none" fill="#0099CC" fill-rule="evenodd" stroke-width="0" fill-opacity="1" />
  <text x="9.74852180480957" y="37.236442565918" dx="0" dy="0" font-family="Arial" font-size="9.74999970942737pt" fill="#000000" style="text-anchor:start" transform="matrix(0.750000 0.000000 0.000000 0.750000 1192.5 -178.875)">CostSurface</text>
  <path d="M1266.74987792969,-155.250015258789 C1266.74987792969,-142.202285766602 1250.12854003906,-131.625015258789 1229.625,-131.625015258789 C1209.12133789063,-131.625 1192.5,-142.202270507813 1192.5,-155.25 C1192.5,-155.25 1192.5,-155.25 1192.5,-155.25 L1192.5,-155.249984741211 C1192.49987792969,-168.297714233398 1209.12133789063,-178.875 1229.62487792969,-178.875 C1250.12841796875,-178.875015258789 1266.74987792969,-168.297744750977 1266.74987792969,-155.25 C1266.74987792969,-155.25 1266.74987792969,-155.25 1266.74987792969,-155.25 " stroke="#000000" fill="none" stroke-width="1" stroke-opacity="1" />
  <path d="M1183.00390625,-105.75 L1240.24597167969,-105.75 L1240.24597167969,-105.75 C1244.94262695313,-105.750007629395 1248.74987792969,-101.942672729492 1248.74987792969,-97.2460708618164 C1248.74987792969,-97.2460708618164 1248.74987792969,-97.2460632324219 1248.74987792969,-97.2460632324219 L1248.75,-97.2460632324219 L1248.75,-67.0039367675781 L1248.74987792969,-67.0039443969727 C1248.74987792969,-62.3073501586914 1244.94262695313,-58.5000076293945 1240.24597167969,-58.5000038146973 L1240.24597167969,-58.5 L1183.00390625,-58.5 L1183.00390625,-58.5000038146973 C1178.30725097656,-58.5 1174.5,-62.3073425292969 1174.5,-67.0039367675781 L1174.5,-97.2460632324219 L1174.49987792969,-97.2460632324219 C1174.49987792969,-101.942657470703 1178.30725097656,-105.75 1183.00390625,-105.750007629395 " stroke="none" fill="#FFCC33" fill-rule="evenodd" stroke-width="0" fill-opacity="1" />
  <text x="32.1485214233398" y="29.7614459991455" dx="0" dy="0" font-family="Arial" font-size="9.74999970942737pt" fill="#000000" style="text-anchor:start" transform="matrix(0.750000 0.000000 0.000000 0.750000 1174.5 -105.75)">Cost </text>
  <text x="10.111855506897" y="44.7114448547363" dx="0" dy="0" font-family="Arial" font-size="9.74999970942737pt" fill="#000000" style="text-anchor:start" transform="matrix(0.750000 0.000000 0.000000 0.750000 1174.5 -105.75)">Connectivity</text>
  <path d="M1183.00390625,-105.75 L1240.24597167969,-105.75 L1240.24597167969,-105.75 C1244.94262695313,-105.750007629395 1248.74987792969,-101.942672729492 1248.74987792969,-97.2460708618164 C1248.74987792969,-97.2460708618164 1248.74987792969,-97.2460632324219 1248.74987792969,-97.2460632324219 L1248.75,-97.2460632324219 L1248.75,-67.0039367675781 L1248.74987792969,-67.0039443969727 C1248.74987792969,-62.3073501586914 1244.94262695313,-58.5000076293945 1240.24597167969,-58.5000038146973 L1240.24597167969,-58.5 L1183.00390625,-58.5 L1183.00390625,-58.5000038146973 C1178.30725097656,-58.5 1174.5,-62.3073425292969 1174.5,-67.0039367675781 L1174.5,-97.2460632324219 L1174.49987792969,-97.2460632324219 C1174.49987792969,-101.942657470703 1178.30725097656,-105.75 1183.00390625,-105.750007629395 " stroke="#000000" fill="none" stroke-width="1" stroke-opacity="1" />
  <path d="M1338.74987792969,-82.1250076293945 C1338.74987792969,-69.0772857666016 1322.12854003906,-58.5000076293945 1301.625,-58.5000038146973 C1281.12133789063,-58.5 1264.5,-69.0772705078125 1264.5,-82.125 C1264.5,-82.125 1264.5,-82.125 1264.5,-82.125 L1264.5,-82.1249847412109 C1264.49987792969,-95.1727142333984 1281.12133789063,-105.749992370605 1301.62487792969,-105.75 C1322.12841796875,-105.750015258789 1338.74987792969,-95.1727447509766 1338.74987792969,-82.125 C1338.74987792969,-82.125 1338.74987792969,-82.125 1338.74987792969,-82.125 " stroke="none" fill="#66CC66" fill-rule="evenodd" stroke-width="0" fill-opacity="1" />
  <text x="2.17118883132935" y="37.236442565918" dx="0" dy="0" font-family="Arial" font-size="9.74999970942737pt" fill="#000000" style="text-anchor:start" transform="matrix(0.750000 0.000000 0.000000 0.750000 1264.5 -105.75)">OptimumNet</text>
  <text x="73.6915283203125" y="37.236442565918" dx="0" dy="0" font-family="Arial" font-size="9.74999970942737pt" fill="#000000" style="text-anchor:start" transform="matrix(0.750000 0.000000 0.000000 0.750000 1264.5 -105.75)"> ...</text>
  <path d="M1338.74987792969,-82.1250076293945 C1338.74987792969,-69.0772857666016 1322.12854003906,-58.5000076293945 1301.625,-58.5000038146973 C1281.12133789063,-58.5 1264.5,-69.0772705078125 1264.5,-82.125 C1264.5,-82.125 1264.5,-82.125 1264.5,-82.125 L1264.5,-82.1249847412109 C1264.49987792969,-95.1727142333984 1281.12133789063,-105.749992370605 1301.62487792969,-105.75 C1322.12841796875,-105.750015258789 1338.74987792969,-95.1727447509766 1338.74987792969,-82.125 C1338.74987792969,-82.125 1338.74987792969,-82.125 1338.74987792969,-82.125 " stroke="#000000" fill="none" stroke-width="1" stroke-opacity="1" />
  <path d="M1338.74987792969,7.8749942779541 C1338.74987792969,20.9227180480957 1322.12854003906,31.4999923706055 1301.625,31.4999961853027 C1281.12133789063,31.5 1264.5,20.9227294921875 1264.5,7.875 C1264.5,7.875 1264.5,7.875 1264.5,7.875 L1264.5,7.8750171661377 C1264.49987792969,-5.17270851135254 1281.12133789063,-15.7499914169312 1301.62487792969,-15.75 C1322.12841796875,-15.7500104904175 1338.74987792969,-5.17274379730225 1338.74987792969,7.875 C1338.74987792969,7.875 1338.74987792969,7.875 1338.74987792969,7.875 " stroke="none" fill="#E7E7E7" fill-rule="evenodd" stroke-width="0" fill-opacity="1" />
  <text x="3.59118890762329" y="22.2864456176758" dx="0" dy="0" font-family="Arial" font-size="9.74999970942737pt" fill="#000000" style="text-anchor:start" transform="matrix(0.750000 0.000000 0.000000 0.750000 1264.5 -15.75)">Output feature </text>
  <text x="24.9215221405029" y="37.236442565918" dx="0" dy="0" font-family="Arial" font-size="9.74999970942737pt" fill="#000000" style="text-anchor:start" transform="matrix(0.750000 0.000000 0.000000 0.750000 1264.5 -15.75)">class of </text>
  <text x="1.06752228736877" y="52.1864471435547" dx="0" dy="0" font-family="Arial" font-size="9.74999970942737pt" fill="#000000" style="text-anchor:start" transform="matrix(0.750000 0.000000 0.000000 0.750000 1264.5 -15.75)">neighboring c</text>
  <text x="76.2381896972656" y="52.1864471435547" dx="0" dy="0" font-family="Arial" font-size="9.74999970942737pt" fill="#000000" style="text-anchor:start" transform="matrix(0.750000 0.000000 0.000000 0.750000 1264.5 -15.75)"> ...</text>
  <path d="M1338.74987792969,7.8749942779541 C1338.74987792969,20.9227180480957 1322.12854003906,31.4999923706055 1301.625,31.4999961853027 C1281.12133789063,31.5 1264.5,20.9227294921875 1264.5,7.875 C1264.5,7.875 1264.5,7.875 1264.5,7.875 L1264.5,7.8750171661377 C1264.49987792969,-5.17270851135254 1281.12133789063,-15.7499914169312 1301.62487792969,-15.75 C1322.12841796875,-15.7500104904175 1338.74987792969,-5.17274379730225 1338.74987792969,7.875 C1338.74987792969,7.875 1338.74987792969,7.875 1338.74987792969,7.875 " stroke="#000000" fill="none" stroke-width="1" stroke-opacity="1" />
</svg>